HIERARCHY
ROOT root
{
	OFFSET	0	13.1	24.9
	CHANNELS 6  Xposition Yposition Zposition Xrotation Yrotation Zrotation
	JOINT spine_1
	{
		OFFSET	0	9.99999	0
		CHANNELS 3  Xrotation Yrotation Zrotation
		JOINT spine_2
		{
			OFFSET	0	112	-10
			CHANNELS 3  Xrotation Yrotation Zrotation
			JOINT spine_3
			{
				OFFSET	0	206.5	19.3
				CHANNELS 3  Xrotation Yrotation Zrotation
				JOINT spine_4
				{
					OFFSET	0	110.4	14.6
					CHANNELS 3  Xrotation Yrotation Zrotation
					JOINT neck_1
					{
						OFFSET	0	71.8	-50.3
						CHANNELS 3  Xrotation Yrotation Zrotation
						JOINT neck_2
						{
							OFFSET	0	86.2	-25.8
							CHANNELS 3  Xrotation Yrotation Zrotation
							JOINT head_ee
							{
								OFFSET	0	179.8	-8.7
								CHANNELS 3  Xrotation Yrotation Zrotation
								End Site
								{
									OFFSET	1	0	0
								}
							}
						}
					}
					JOINT left_clavicle
					{
						OFFSET	-43.2	22.4	-70.8
						CHANNELS 3  Xrotation Yrotation Zrotation
						JOINT left_shoulder
						{
							OFFSET	-93.9	-5.79999	48.7
							CHANNELS 3  Xrotation Yrotation Zrotation
							JOINT left_elbow
							{
								OFFSET	-291.4	-30.8	15.2
								CHANNELS 3  Xrotation Yrotation Zrotation
								JOINT left_lowarm_twist
								{
									OFFSET	-110.7	-3.89999	13.6
									CHANNELS 3  Xrotation Yrotation Zrotation
									JOINT left_hand
									{
										OFFSET	-110.7	-3.89999	13.6
										CHANNELS 3  Xrotation Yrotation Zrotation
										JOINT left_ee
										{
											OFFSET	-80.8	-5.10001	12.1
											CHANNELS 3  Xrotation Yrotation Zrotation
											End Site
											{
												OFFSET	1	0	0
											}
										}
									}
								}
							}
						}
					}
					JOINT right_clavicle
					{
						OFFSET	43.2	22.4	-70.8
						CHANNELS 3  Xrotation Yrotation Zrotation
						JOINT right_shoulder
						{
							OFFSET	93.9	-5.79999	48.7
							CHANNELS 3  Xrotation Yrotation Zrotation
							JOINT right_elbow
							{
								OFFSET	291.4	-30.8	15.2
								CHANNELS 3  Xrotation Yrotation Zrotation
								JOINT right_lowarm_twist
								{
									OFFSET	110.7	-3.89999	13.6
									CHANNELS 3  Xrotation Yrotation Zrotation
									JOINT right_hand
									{
										OFFSET	110.7	-3.89999	13.6
										CHANNELS 3  Xrotation Yrotation Zrotation
										JOINT right_ee
										{
											OFFSET	80.8	-5.10001	12.1
											CHANNELS 3  Xrotation Yrotation Zrotation
											End Site
											{
												OFFSET	1	0	0
											}
										}
									}
								}
							}
						}
					}
				}
			}
		}
	}
	JOINT left_hip
	{
		OFFSET	-82.8	-127.5	0.300001
		CHANNELS 3  Xrotation Yrotation Zrotation
		JOINT left_knee
		{
			OFFSET	-28.2	-396.7	2.2
			CHANNELS 3  Xrotation Yrotation Zrotation
			JOINT left_ankle
			{
				OFFSET	-11.7	-411.3	35.4
				CHANNELS 3  Xrotation Yrotation Zrotation
				JOINT left_toes
				{
					OFFSET	0	-60	-88.6
					CHANNELS 3  Xrotation Yrotation Zrotation
					JOINT left_foot_ee
					{
						OFFSET	-22.5	-16.5	-42.2
						CHANNELS 3  Xrotation Yrotation Zrotation
						End Site
						{
							OFFSET	1	0	0
						}
					}
				}
			}
		}
	}
	JOINT right_hip
	{
		OFFSET	82.8	-127.5	0.300001
		CHANNELS 3  Xrotation Yrotation Zrotation
		JOINT right_knee
		{
			OFFSET	28.2	-396.7	2.2
			CHANNELS 3  Xrotation Yrotation Zrotation
			JOINT right_ankle
			{
				OFFSET	11.7	-411.3	35.4
				CHANNELS 3  Xrotation Yrotation Zrotation
				JOINT right_toes
				{
					OFFSET	0	-60	-88.6
					CHANNELS 3  Xrotation Yrotation Zrotation
					JOINT right_foot_ee
					{
						OFFSET	22.5	-16.5	-42.2
						CHANNELS 3  Xrotation Yrotation Zrotation
						End Site
						{
							OFFSET	1	0	0
						}
					}
				}
			}
		}
	}
}
MOTION
Frames: 8
Frame Time: 0.02
3177.02 653.055 -1669.29 -0.763829830661 12.9060509683 7.36973173328 0.944083 -0.100998 -1.58226 0.945476 -0.000122957 -1.58548 0.945768 0.307555 -1.55537 0.942397 0.058085 -1.58442 0.492286 10.3969 -1.46835 0.826153 19.6847 -0.598999 -0.0 0.0 -0.0 5.12189 4.31883 10.0038 -30.5338 -37.1932 66.5543 0.281609 -7.94174 0.0195482 -21.3076 -1.21613 2.42227 2.29969 -14.417 9.35439 -0.0 0.0 -0.0 9.96845 25.6593 -18.8293 8.46023 -4.83438 -55.8566 2.33328 49.1275 -1.06659 67.6856 2.50382 7.76929 3.10328 0.279811 -21.1179 0.0 0.0 0.0 35.3135 12.9617 -8.93666 -14.505 0.320614 2.19695 9.83052 -9.42298 -1.46445 -38.7542 0.0 0.0 -0.0 0.0 -0.0 -11.2376 4.51366 -16.1791 -9.87396 -0.278918 -1.4878 36.5531 21.9182 5.11189 -17.7194 0.0 0.0 0.0 0.0 0.0 
3177.02 653.055 -1669.29 -0.763672756326 12.8545229059 7.3690270947 0.944083 -0.100998 -1.58226 0.945476 -0.000122957 -1.58548 0.945768 0.307555 -1.55537 0.942397 0.058085 -1.58442 0.492286 10.3969 -1.46835 0.826153 19.6847 -0.598999 -0.0 0.0 -0.0 5.12189 4.31883 10.0038 -30.5338 -37.1932 66.5543 0.281609 -7.94174 0.0195482 -21.3076 -1.21613 2.42227 2.29969 -14.417 9.35439 -0.0 0.0 -0.0 9.96845 25.6593 -18.8293 8.46023 -4.83438 -55.8566 2.33328 49.1275 -1.06659 67.6856 2.50382 7.76929 3.10328 0.279811 -21.1179 0.0 0.0 0.0 35.3135 12.9617 -8.93666 -14.505 0.320614 2.19695 9.83052 -9.42298 -1.46445 -38.7542 0.0 0.0 -0.0 0.0 -0.0 -11.2376 4.51366 -16.1791 -9.87396 -0.278918 -1.4878 36.5531 21.9182 5.11189 -17.7194 0.0 0.0 0.0 0.0 0.0 
3166.60843778 655.583 -1692.33573436 -1.50386256926 12.3173500744 7.51120723953 1.33933 -0.106669 -1.65823 1.34086 -0.000950103 -1.66166 1.34105 0.310276 -1.63244 1.33733 0.0486055 -1.66095 -0.0174086 10.5451 -1.46755 0.305643 20.006 -0.505954 -0.0 0.0 -0.0 5.08317 4.17908 9.92865 -24.9119 -36.6463 68.4723 0.279444 -7.88144 0.0192501 -22.1346 -1.28094 2.50608 2.38224 -12.0019 11.0162 -0.0 0.0 -0.0 9.8603 24.9685 -18.6585 6.3929 -5.20406 -56.0182 2.17989 47.1926 -0.952295 67.2773 2.46285 7.73664 3.43408 0.608632 -23.3825 0.0 0.0 0.0 34.439 13.2139 -8.68182 -14.4203 0.320366 2.18395 9.8391 -10.0431 -1.47073 -38.5524 0.0 0.0 -0.0 0.0 -0.0 -10.6085 6.2016 -15.2694 -11.8214 -0.303436 -1.7856 37.3179 21.307 5.1598 -18.0667 0.0 0.0 0.0 0.0 0.0 
3166.61673126 655.583 -1692.33947938 -1.50374452754 12.2967397839 7.51065344438 1.33933 -0.106669 -1.65823 1.34086 -0.000950103 -1.66166 1.34105 0.310276 -1.63244 1.33733 0.0486055 -1.66095 -0.0174086 10.5451 -1.46755 0.305643 20.006 -0.505954 -0.0 0.0 -0.0 5.08317 4.17908 9.92865 -24.9119 -36.6463 68.4723 0.279444 -7.88144 0.0192501 -22.1346 -1.28094 2.50608 2.38224 -12.0019 11.0162 -0.0 0.0 -0.0 9.8603 24.9685 -18.6585 6.3929 -5.20406 -56.0182 2.17989 47.1926 -0.952295 67.2773 2.46285 7.73664 3.43408 0.608632 -23.3825 0.0 0.0 0.0 34.439 13.2139 -8.68182 -14.4203 0.320366 2.18395 9.8391 -10.0431 -1.47073 -38.5524 0.0 0.0 -0.0 0.0 -0.0 -10.6085 6.2016 -15.2694 -11.8214 -0.303436 -1.7856 37.3179 21.307 5.1598 -18.0667 0.0 0.0 0.0 0.0 0.0 
3160.92407068 659.173 -1708.58396467 -1.69508628946 11.9180415364 7.56798747249 1.41178 -0.120219 -1.66866 1.41333 -0.0138098 -1.67293 1.41387 0.297657 -1.6463 1.41009 0.0339577 -1.67264 -1.22769 10.6364 -2.11565 -0.919444 20.8183 -0.996396 -0.0 0.0 -0.0 4.91088 6.63143 9.65163 -26.0106 -37.231 67.7105 0.352762 -9.91243 0.0305912 -22.8856 -1.34085 2.58137 2.11601 -10.58 9.82737 -0.0 0.0 -0.0 10.3571 24.8276 -19.7861 3.91188 -4.58072 -55.4699 2.17918 47.1833 -0.951776 67.7213 2.50742 7.77213 3.47072 0.939399 -23.5156 0.0 0.0 0.0 33.7818 13.0295 -8.81058 -15.9116 0.321918 2.41274 12.7956 -9.19337 -1.8815 -39.4008 0.0 0.0 -0.0 0.0 -0.0 -10.1842 6.62 -15.0521 -13.1475 -0.314333 -1.98877 36.5572 20.8543 5.06506 -18.4198 0.0 0.0 0.0 0.0 0.0 
3148.48046031 664.193 -1757.84528597 -0.890926530675 11.4838365367 8.3332441926 1.61737 -0.323536 -1.83066 1.61921 -0.206411 -1.84753 1.62605 0.133956 -1.85419 1.62129 -0.160508 -1.85208 -3.00786 10.5331 -3.17696 -2.74143 21.6159 -1.81259 -0.0 0.0 -0.0 4.60062 6.1257 9.07486 -22.2026 -35.9567 69.6541 0.31397 -8.84065 0.0242707 -23.6269 -1.40095 2.65492 2.2811 -10.0489 11.1943 -0.0 0.0 -0.0 10.2817 22.483 -19.8369 0.362974 -7.42267 -57.2199 2.07933 45.8422 -0.879325 66.5347 2.38895 7.67653 3.53676 0.546239 -24.161 0.0 0.0 0.0 30.684 12.2944 -9.30332 -16.306 0.321332 2.47327 19.089 -8.94582 -2.72423 -38.858 0.0 0.0 -0.0 0.0 -0.0 -7.72261 7.65436 -13.3276 -21.2993 -0.277934 -3.23793 38.3319 20.8858 5.2385 -18.4084 0.0 0.0 0.0 0.0 0.0 
3149.46836629 664.193 -1758.15760647 -0.8889705711 10.8458644011 8.32314294915 1.61737 -0.323536 -1.83066 1.61921 -0.206411 -1.84753 1.62605 0.133956 -1.85419 1.62129 -0.160508 -1.85208 -3.00786 10.5331 -3.17696 -2.74143 21.6159 -1.81259 -0.0 0.0 -0.0 4.60062 6.1257 9.07486 -22.2026 -35.9567 69.6541 0.31397 -8.84065 0.0242707 -23.6269 -1.40095 2.65492 2.2811 -10.0489 11.1943 -0.0 0.0 -0.0 10.2817 22.483 -19.8369 0.362974 -7.42267 -57.2199 2.07933 45.8422 -0.879325 66.5347 2.38895 7.67653 3.53676 0.546239 -24.161 0.0 0.0 0.0 30.684 12.2944 -9.30332 -16.306 0.321332 2.47327 19.089 -8.94582 -2.72423 -38.858 0.0 0.0 -0.0 0.0 -0.0 -7.72261 7.65436 -13.3276 -21.2993 -0.277934 -3.23793 38.3319 20.8858 5.2385 -18.4084 0.0 0.0 0.0 0.0 0.0 
3131.84620685 672.304 -1804.19624786 2.07191784076 11.2977984547 6.39643372053 1.33514 -0.375178 -1.59433 1.33651 -0.27298 -1.61496 1.3445 0.034103 -1.63751 1.34083 -0.224905 -1.62235 -3.90852 10.8397 -2.2369 -3.71603 21.5259 -0.616364 -0.0 0.0 -0.0 5.0812 1.77042 9.8703 -20.5769 -34.9685 71.3452 0.285497 -8.04996 0.020089 -22.8413 -1.33729 2.57696 1.99694 -9.11188 9.65614 -0.0 0.0 -0.0 10.1047 20.9215 -19.5684 -3.02706 -8.13835 -59.5388 1.79842 41.6935 -0.684883 63.1211 2.05954 7.38819 2.76451 -2.15673 -19.6611 0.0 0.0 0.0 23.8091 14.1781 -7.77591 -16.528 0.320819 2.50731 27.1593 -9.47245 -3.71859 -37.7225 0.0 0.0 -0.0 0.0 -0.0 -6.57379 12.7989 -11.0547 -31.36 0.0104245 -4.75304 35.557 23.928 5.10624 -18.9149 0.0 0.0 0.0 0.0 0.0 
